<svg xmlns="http://www.w3.org/2000/svg" viewBox="108 68 172 222" width="172" height="222" role="img" aria-label="PassQuantum" fill="currentColor">
  <title>PassQuantum</title>
  <path d="M164 138 L164 110 A26 26 0 0 1 216 110 L216 138" fill="none" stroke="currentColor" stroke-width="13" stroke-linecap="round" stroke-linejoin="round"/>
  <circle cx="190" cy="200" r="66" fill="none" stroke="currentColor" stroke-width="11"/>
  <g stroke="currentColor" stroke-width="2" opacity="0.4">
    <line x1="224" y1="200" x2="207" y2="229"/>
    <line x1="207" y1="229" x2="173" y2="229"/>
    <line x1="173" y1="229" x2="156" y2="200"/>
    <line x1="156" y1="200" x2="173" y2="171"/>
    <line x1="173" y1="171" x2="207" y2="171"/>
    <line x1="207" y1="171" x2="224" y2="200"/>
    <line x1="190" y1="200" x2="224" y2="200"/>
    <line x1="190" y1="200" x2="207" y2="229"/>
    <line x1="190" y1="200" x2="173" y2="229"/>
    <line x1="190" y1="200" x2="156" y2="200"/>
    <line x1="190" y1="200" x2="173" y2="171"/>
    <line x1="190" y1="200" x2="207" y2="171"/>
  </g>
  <g fill="currentColor">
    <circle cx="224" cy="200" r="4"/>
    <circle cx="207" cy="229" r="4"/>
    <circle cx="173" cy="229" r="4"/>
    <circle cx="156" cy="200" r="4"/>
    <circle cx="173" cy="171" r="4"/>
    <circle cx="207" cy="171" r="4"/>
    <circle cx="190" cy="200" r="8"/>
  </g>
  <line x1="224" y1="234" x2="262" y2="272" stroke="currentColor" stroke-width="14" stroke-linecap="round"/>
</svg>
